<svg version="1.1" xmlns="http://www.w3.org/2000/svg" xmlns:xlink="http://www.w3.org/1999/xlink" x="0px" y="0px" viewBox="0 0 1000 1000" enable-background="new 0 0 1000 1000" xml:space="preserve">
    <g>
        <g transform="matrix(1 0 0 -1 0 1536)">
            <path d="M346.9,1036c-50.7,0-94,17.9-129.9,53.8s-53.8,79.2-53.8,129.9s17.9,94,53.8,129.9s79.2,53.8,129.9,53.8s94-17.9,129.9-53.8s53.8-79.2,53.8-129.9s-17.9-94-53.8-129.9S397.6,1036,346.9,1036z M806.3,974.8h168.4c4.1,0,7.7-1.5,10.8-4.5s4.5-6.6,4.5-10.8v-91.9c0-4.1-1.5-7.7-4.5-10.8s-6.6-4.5-10.8-4.5H806.3V683.8c0-4.1-1.5-7.7-4.5-10.8s-6.6-4.5-10.8-4.5h-91.9c-4.1,0-7.7,1.5-10.8,4.5s-4.5,6.6-4.5,10.8v168.4H515.3c-4.1,0-7.7,1.5-10.8,4.5s-4.5,6.6-4.5,10.8v91.9c0,4.1,1.5,7.7,4.5,10.8s6.6,4.5,10.8,4.5h168.4v168.4c0,4.1,1.5,7.7,4.5,10.8s6.6,4.5,10.8,4.5h91.9c4.1,0,7.7-1.5,10.8-4.5s4.5-6.6,4.5-10.8V974.8z M454.1,867.6c0-16.6,6.1-30.9,18.2-43.1s26.5-18.2,43.1-18.2h122.5V692.4c-21.7-16-49-23.9-81.8-23.9H137.8c-38.6,0-69.5,11-92.8,33S10,753.8,10,792.4c0,16.9,0.6,33.4,1.7,49.5s3.3,33.5,6.7,52.2s7.6,36,12.7,51.9s12,31.5,20.6,46.7s18.5,28.1,29.7,38.8s24.8,19.2,40.9,25.6s33.9,9.6,53.4,9.6c6.1,0,12.3-2.7,18.7-8.1c25.2-19.5,49.8-34.1,73.9-43.8s50.3-14.6,78.7-14.6s54.6,4.9,78.7,14.6s48.7,24.3,73.9,43.8c6.4,5.4,12.6,8.1,18.7,8.1c42.1,0,76.7-15.3,103.8-45.9H515.3c-16.6,0-30.9-6.1-43.1-18.2c-12.1-12.1-18.2-26.5-18.2-43.1V867.6z"/>
        </g>
    </g>
</svg>
